<?xml version="1.0" encoding="UTF-8"?>
<!-- Marketplace plugin logo (auto-discovered by the platform as META-INF/pluginIcon.svg).
     Original green-sprout mark — not derived from Meta's Sapling logo. Reads on light and
     dark backgrounds, so no _dark variant is required. -->
<svg xmlns="http://www.w3.org/2000/svg" viewBox="171 172 680 680" width="40" height="40"><defs><linearGradient id="sap" gradientUnits="userSpaceOnUse" x1="5120" y1="8200" x2="5120" y2="2040"><stop offset="0" stop-color="#63E376"/><stop offset="0.5" stop-color="#2FC57E"/><stop offset="1" stop-color="#08A987"/></linearGradient></defs><g transform="translate(0.000000,1024.000000) scale(0.100000,-0.100000)" fill="url(#sap)" stroke="none"><path d="M2228 8187 c-75 -7 -141 -16 -147 -22 -36 -37 -52 -665 -21 -860 39
-251 47 -286 112 -474 258 -748 802 -1162 1688 -1287 144 -20 514 -31 524 -15
37 60 -295 692 -508 966 -54 69 -289 328 -341 375 -27 25 -87 80 -133 122 -46
43 -121 104 -165 135 -45 31 -76 58 -69 61 23 7 356 -169 501 -265 220 -147
484 -382 596 -533 27 -36 75 -99 106 -141 223 -295 411 -764 488 -1219 67
-394 71 -494 71 -1805 0 -897 3 -1174 12 -1183 17 -17 339 -17 356 0 9 9 12
283 12 1173 0 1170 5 1367 40 1600 5 39 14 102 20 140 12 93 47 268 65 330
104 361 110 375 217 595 94 193 127 247 267 435 235 315 570 589 956 783 161
81 215 106 215 97 0 -3 -43 -37 -95 -76 -185 -137 -473 -424 -631 -629 -112
-145 -255 -373 -335 -535 -148 -298 -192 -410 -168 -427 20 -14 393 -2 524 17
243 34 310 50 510 117 760 255 1208 855 1295 1733 22 217 1 738 -31 770 -26
26 -601 44 -829 26 -887 -71 -1487 -435 -1799 -1093 -101 -212 -157 -403 -205
-699 -13 -76 -36 -348 -36 -419 0 -60 -6 -89 -29 -145 -50 -122 -89 -228 -111
-302 -11 -40 -25 -73 -30 -73 -5 0 -24 48 -43 108 -45 137 -89 258 -110 299
-12 23 -17 58 -17 125 0 187 -42 496 -95 703 -171 664 -592 1135 -1205 1350
-162 56 -428 116 -605 135 -147 17 -656 21 -817 7z"/></g></svg>
